<svg height='300px' width='300px'  fill="#000000" xmlns="http://www.w3.org/2000/svg" viewBox="0 0 64 64" x="0px" y="0px"><g data-name="Layer 4"><path d="M49.34,44.66C59.75,30.84,49.42,10.34,32,10.5,14.58,10.34,4.25,30.84,14.66,44.66a1.45,1.45,0,0,0,.35.47c8.36,11.1,25.63,11.09,34,0A1.35,1.35,0,0,0,49.34,44.66ZM32,13.5c14.17-.2,23.33,16.06,15.84,28-8.12-9.25-23.56-9.25-31.68,0C8.67,29.56,17.83,13.3,32,13.5Zm0,37A18.44,18.44,0,0,1,18,44c7-8.57,21.11-8.56,28.1,0A18.44,18.44,0,0,1,32,50.5Z"></path><path d="M32,32.5a7,7,0,0,0,7-7c-.33-9.3-13.71-9.3-14,0A7,7,0,0,0,32,32.5Zm0-11a4,4,0,0,1,0,8.05A4,4,0,0,1,32,21.45Z"></path></g></svg>