<svg height='300px' width='300px'  fill="#000000" xmlns="http://www.w3.org/2000/svg" xmlns:xlink="http://www.w3.org/1999/xlink" version="1.1" x="0px" y="0px" viewBox="0 0 100 100" style="enable-background:new 0 0 100 100;" xml:space="preserve"><g><path d="M82.3,35.4l-15-15c-0.1-0.1-0.2-0.2-0.3-0.2c0,0,0,0-0.1,0c-0.1,0-0.2-0.1-0.2-0.1c0,0-0.1,0-0.1,0c-0.1,0-0.2-0.1-0.2-0.1   c-0.1,0-0.2,0-0.4,0H49.4c0.2,1.2,0.3,2.4,0.3,3.6h14.4v13.3c0,1,0.8,1.8,1.8,1.8h13.3v46.8h-47V48.1c-1.3-0.6-2.5-1.5-3.6-2.4   v41.4c0,1,0.8,1.8,1.8,1.8h50.6c1,0,1.8-0.8,1.8-1.8V36.7c0,0,0,0,0,0C82.9,36.2,82.7,35.7,82.3,35.4z M67.8,34.9V26l8.9,8.9H67.8z   "></path><path d="M38.8,47.4c-1.6-0.8-2.8-2.1-3.4-3.6c-0.3-0.7-0.4-2.2,0.4-2.2c11.6,0,11.6-7.4,11.6-15.2c0-8.5,0-15.3-15.1-15.3   c-15.1,0-15.1,6.8-15.1,15.3c0,7.8,0,15.2,11.6,15.2C30.7,45,34.8,47.3,38.8,47.4z M30.8,19.1c0.2-0.5,0.7-0.7,1.4-0.7   c0.6,0,1,0.2,1.4,0.6c0.4,0.4,0.5,0.9,0.5,1.6c0,0.5,0,1.3-0.1,2.4l-0.4,5.8c-0.1,0.7-0.2,1.3-0.4,1.7c-0.2,0.4-0.5,0.5-0.9,0.5   c-0.4,0-0.7-0.2-0.9-0.6c-0.2-0.4-0.3-0.9-0.4-1.6l-0.5-5.9c-0.1-0.5-0.1-1.1-0.1-1.6C30.5,20.3,30.6,19.6,30.8,19.1z M31,33.6   c0.4-0.4,0.8-0.5,1.3-0.5s0.9,0.2,1.3,0.5c0.4,0.3,0.5,0.8,0.5,1.3c0,0.6-0.2,1-0.5,1.3c-0.4,0.3-0.8,0.5-1.3,0.5   c-0.5,0-0.9-0.2-1.3-0.5s-0.5-0.8-0.5-1.3C30.5,34.4,30.6,34,31,33.6z"></path></g></svg>