<svg height='300px' width='300px'  fill="#000000" xmlns="http://www.w3.org/2000/svg" xmlns:xlink="http://www.w3.org/1999/xlink" version="1.1" x="0px" y="0px" viewBox="0 0 60 60" style="enable-background:new 0 0 60 60;" xml:space="preserve"><path d="M33.65,8.04l-22,22c-4.05,4.05-4.05,10.65,0,14.71c1.44,1.44,3.23,2.41,5.21,2.82c1.2,4.28,5.13,7.43,9.79,7.43  c2.8,0,5.33-1.13,7.17-2.96c0.01-0.01,0.02-0.01,0.02-0.02s0.01-0.02,0.02-0.02c1.83-1.84,2.96-4.38,2.96-7.17  c0-2.9-1.22-5.51-3.17-7.36l14.71-14.71c4.05-4.05,4.05-10.65,0-14.71C44.3,3.99,37.7,3.99,33.65,8.04z M18.47,44.82  c0-1.89,0.65-3.64,1.74-5.02l11.46,11.46C30.28,52.34,28.54,53,26.64,53C22.13,53,18.47,49.33,18.47,44.82z M34.82,44.82  c0,1.89-0.65,3.64-1.74,5.02L21.62,38.38c1.39-1.09,3.13-1.74,5.02-1.74C31.15,36.65,34.82,40.31,34.82,44.82z M26.64,34.65  c-2.79,0-5.33,1.13-7.17,2.96c-0.01,0.01-0.02,0.01-0.03,0.02c-0.01,0.01-0.01,0.02-0.02,0.03c-1.83,1.84-2.96,4.38-2.96,7.17  c0,0.2,0.02,0.4,0.03,0.6c-1.29-0.4-2.46-1.11-3.44-2.08c-3.27-3.28-3.27-8.6,0-11.88l10.29-10.29l11.88,11.88l-3.18,3.18  C30.49,35.23,28.63,34.65,26.64,34.65z M46.94,21.34L36.65,31.63L24.77,19.75L35.06,9.46c3.28-3.27,8.6-3.27,11.88,0  c1.59,1.59,2.46,3.7,2.46,5.94S48.53,19.75,46.94,21.34z"></path></svg>