<svg fill="none" height="512" viewBox="0 0 24 24" width="512" xmlns="http://www.w3.org/2000/svg"><g clip-rule="evenodd" fill-rule="evenodd"><path d="m11.5004 23.5594c.0002.0001.0003.0002.4996-.5594l-.4993.5596c.2845.2539.7141.2539.9986 0l-.4993-.5596c.4993.5596.4994.5595.4996.5594l.0004-.0004.0016-.0014.0056-.005.0207-.0186c.0179-.0162.0442-.0399.0781-.0708.0679-.0619.1667-.1525.292-.2692.2504-.2333.607-.5711 1.0343-.9917.8539-.8404 1.9946-2.0154 3.1375-3.3506 1.1404-1.3324 2.297-2.8405 3.1724-4.3466.8645-1.4875 1.5078-3.0618 1.5078-4.5051 0-5.38478-4.3652-9.75-9.75-9.75-5.38478 0-9.75 4.36522-9.75 9.75 0 1.4433.64327 3.0176 1.50781 4.5051.87535 1.5061 2.03198 3.0142 3.17241 4.3466 1.14288 1.3352 2.28358 2.5102 3.13748 3.3506.4273.4206.7839.7584 1.0343.9917.1253.1167.2241.2073.292.2692.0339.0309.0602.0546.0781.0708l.0207.0186.0056.005.0016.0014z" fill="#f44336"/><path d="m10.2373 3.75c-.41425 0-.75003.33579-.75003.75v1.19413l-.98243-.53871c-.17811-.09766-.38821-.1189-.58226-.05887s-.35546.19621-.4473.37738l-1.64422 3.24348c-.18301.36102-.04655.80212.30835.99673l.52109.28574-.52109.28572c-.3549.1946-.49136.6357-.30835.9967l1.64422 3.2435c.09184.1812.25325.3174.4473.3774s.40415.0388.58226-.0589l.98243-.5387v1.1944c0 .4142.33578.75.75003.75h3.5255c.4142 0 .75-.3358.75-.75v-1.1944l.9824.5387c.1781.0977.3882.1189.5823.0589.194-.06.3554-.1962.4472-.3774l1.6443-3.2435c.183-.361.0465-.8021-.3084-.9967l-.5211-.28572.5211-.28574c.3549-.19461.4914-.63571.3084-.99673l-1.6443-3.24348c-.0918-.18117-.2532-.31735-.4472-.37738-.1941-.06003-.4042-.03879-.5823.05887l-.9824.53872v-1.19414c0-.41421-.3358-.75-.75-.75z" fill="#fafafa"/><path d="m12 23v.75c-.1785 0-.3571-.0634-.4993-.1904zm0 0v-22.75c-5.38478 0-9.75 4.36522-9.75 9.75 0 1.4433.64327 3.0176 1.50781 4.5051.87535 1.5061 2.03198 3.0142 3.17241 4.3466 1.14288 1.3352 2.28358 2.5102 3.13748 3.3506.4273.4206.7839.7584 1.0343.9917.1253.1167.2241.2073.292.2692.0339.0309.0602.0546.0781.0708l.0207.0186.0056.005.0016.0014.0004.0004c.0002.0001.0003.0002.4996-.5594z" fill="#cc382d"/><path d="m12 3.75h-1.7627c-.41425 0-.75003.33579-.75003.75v1.19413l-.98243-.5387c-.17811-.09767-.38821-.11891-.58226-.05888s-.35546.19621-.4473.37738l-1.64422 3.24348c-.18301.36102-.04655.80212.30835.99673l.52109.28574-.52109.28572c-.3549.1946-.49136.6357-.30835.9967l1.64422 3.2435c.09184.1812.25325.3174.4473.3774s.40415.0388.58226-.0589l.98243-.5387v1.1944c0 .4142.33578.75.75003.75h1.7627z" fill="#d4d6d9"/></g></svg>