<svg height='300px' width='300px'  fill="#000000" xmlns="http://www.w3.org/2000/svg" viewBox="0 0 64 64" x="0px" y="0px"><title>ambulance-car-transport-van</title><g data-name="Layer 4"><path d="M56.84,37.39,51.42,23A3,3,0,0,0,48.61,21H46V20a3,3,0,0,0-6,0v1H3a1,1,0,0,0-1,1V50a1,1,0,0,0,1,1h7.09a6,6,0,0,0,11.82,0H44.09a6,6,0,0,0,11.82,0H61a1,1,0,0,0,1-1V42a1,1,0,0,0-.38-.78ZM54.56,37H44.62a.62.62,0,0,1-.62-.62V27.62a.62.62,0,0,1,.62-.62h6.19ZM42,20a1,1,0,0,1,2,0v1H42ZM16,54a4,4,0,1,1,4-4A4,4,0,0,1,16,54Zm34,0a4,4,0,1,1,4-4A4,4,0,0,1,50,54Zm5.91-5a6,6,0,0,0-11.82,0H21.91a6,6,0,0,0-11.82,0H4V47H9V45H4V39H40V37H4V23H48.61a1,1,0,0,1,.94.65L50.06,25H44.62A2.63,2.63,0,0,0,42,27.62v8.76A2.63,2.63,0,0,0,44.62,39h11L60,42.48V45H57v2h3v2Z"></path><rect x="23" y="45" width="20" height="2"></rect><rect x="15" y="49" width="2" height="2"></rect><rect x="49" y="49" width="2" height="2"></rect><polygon points="16.4 26.2 14 28 14 25 12 25 12 28 9.6 26.2 8.4 27.8 11.33 30 8.4 32.2 9.6 33.8 12 32 12 35 14 35 14 32 16.4 33.8 17.6 32.2 14.67 30 17.6 27.8 16.4 26.2"></polygon><rect x="42" y="11" width="2" height="4"></rect><rect x="36.5" y="12.38" width="2" height="4.24" transform="translate(0.73 30.76) rotate(-45)"></rect><rect x="46.38" y="13.5" width="4.24" height="2" transform="translate(3.95 38.54) rotate(-45)"></rect><path d="M40,27.4A2.41,2.41,0,0,0,37.6,25H32.4A2.41,2.41,0,0,0,30,27.4v5.2A2.41,2.41,0,0,0,32.4,35h5.2A2.41,2.41,0,0,0,40,32.6Zm-2,5.2a.4.4,0,0,1-.4.4H32.4a.4.4,0,0,1-.4-.4V27.4a.4.4,0,0,1,.4-.4h5.2a.4.4,0,0,1,.4.4Z"></path><rect x="2" y="13" width="15" height="2"></rect><rect x="11" y="17" width="9" height="2"></rect><rect x="5" y="17" width="3" height="2"></rect></g></svg>