<svg height="512pt" viewBox="0 0 512 512" width="512pt" xmlns="http://www.w3.org/2000/svg"><path d="m408.867188 354.414062h-99.628907v-18.988281c35.695313-19.253906 60-56.933593 60-100.167969v-169.433593c.003907-36.25-29.5-65.7578128-65.769531-65.777344l-96.773438-.046875h-.03125c-17.585937 0-34.117187 6.847656-46.546874 19.28125-12.433594 12.4375-19.269532 28.964844-19.257813 46.546875l.140625 169.429687c0 43.234376 24.300781 80.914063 60 100.167969v18.988281h-97.867188c-56.867187 0-103.132812 46.136719-103.132812 102.847657v9.773437c0 24.792969 20.214844 44.964844 45.0625 44.964844h421.875c24.847656 0 45.0625-20.171875 45.0625-44.964844v-9.773437c0-56.710938-46.265625-102.847657-103.132812-102.847657zm-227.535157-313.921874c6.765625-6.765626 15.761719-10.492188 25.332031-10.492188h.019532l96.769531.046875c19.734375.011719 35.789063 16.058594 35.785156 35.777344v69.734375h-168.320312l-.058594-69.753906c-.007813-9.558594 3.710937-18.546876 10.472656-25.3125zm-10.332031 194.753906-.058594-69.6875h168.296875v69.699218c0 46.207032-37.734375 83.796876-84.121093 83.796876-46.382813 0-84.117188-37.589844-84.117188-83.808594zm84.117188 113.808594c8.273437 0 16.34375-.882813 24.121093-2.558594v13.304687c0 13.230469-10.820312 23.992188-24.121093 23.992188-13.296876 0-24.117188-10.761719-24.117188-23.992188v-13.304687c7.777344 1.675781 15.847656 2.558594 24.117188 2.558594zm-225.117188 117.980468v-9.773437c0-40.167969 32.808594-72.847657 73.132812-72.847657h103.824219c6.753907 13.105469 18.726563 23.109376 33.160157 27.269532v70.316406h-120.21875v-27.964844c0-8.285156-6.71875-15-15-15-8.285157 0-15 6.714844-15 15v27.964844h-44.835938c-8.304688 0-15.0625-6.714844-15.0625-14.964844zm452 0c0 8.25-6.757812 14.964844-15.0625 14.964844h-44.835938v-27.964844c0-8.285156-6.714843-15-15-15-8.285156 0-15 6.714844-15 15v27.964844h-121.984374v-70.316406c14.4375-4.160156 26.40625-14.164063 33.164062-27.269532h105.585938c40.324218 0 73.132812 32.679688 73.132812 72.847657zm0 0"/><path d="m229.984375 97.582031h10.066406v10.054688c0 8.285156 6.714844 15 15 15 8.285157 0 15-6.714844 15-15v-10.054688h10.066407c8.285156 0 15-6.714843 15-15 0-8.28125-6.714844-15-15-15h-10.066407v-10.054687c0-8.28125-6.714843-15-15-15-8.285156 0-15 6.71875-15 15v10.054687h-10.066406c-8.285156 0-15 6.71875-15 15 0 8.285157 6.714844 15 15 15zm0 0"/></svg>