<?xml version="1.0" encoding="utf-8"?>
<!-- Generator: Adobe Illustrator 24.3.0, SVG Export Plug-In . SVG Version: 6.00 Build 0)  -->
<svg version="1.1" id="color" xmlns="http://www.w3.org/2000/svg" xmlns:xlink="http://www.w3.org/1999/xlink" x="0px" y="0px"
	 viewBox="0 0 512 512" style="enable-background:new 0 0 512 512;" xml:space="preserve">
<style type="text/css">
	.st0{fill:#F15732;}
	.st1{fill:#F0533A;}
	.st2{fill:#FBC7C0;}
	.st3{fill:#FABEB5;}
	.st4{fill:#F44336;}
	.st5{fill:#D43A2F;}
</style>
<path class="st0" d="M192,242.3c-58.8,0-106.7-47.9-106.7-106.7S133.2,29,192,29s106.7,47.9,106.7,106.7S250.8,242.3,192,242.3z"/>
<path class="st1" d="M364.6,448H10.4C4.7,448,0,443.2,0,437.3V352c0-52.9,42.1-96,93.8-96h187.5c51.7,0,93.8,43.1,93.8,96v85.3
	C375,443.2,370.4,448,364.6,448z"/>
<path class="st2" d="M192,242.3c58.8,0,106.7-47.9,106.7-106.7S250.8,29,192,29V242.3z"/>
<path class="st3" d="M192,448h174.7c5.7,0,10.3-4.8,10.3-10.7V352c0-52.9-41.5-96-92.5-96H192V448z"/>
<path class="st4" d="M309.3,501c-7.1,0-13.8-3.5-17.7-9.5L255.3,437h-41.9c-11.8,0-21.3-9.6-21.3-21.3s9.6-21.3,21.3-21.3h53.3
	c7.1,0,13.8,3.6,17.7,9.5l22.3,33.4l47.6-95.1c3.5-7,10.5-11.5,18.3-11.8c8.3-0.2,15.1,3.7,19.1,10.3l57.8,96.3h41.3
	c11.8,0,21.3,9.6,21.3,21.3s-9.6,21.3-21.3,21.3h-53.3c-7.5,0-14.4-3.9-18.3-10.3L375,396l-46.6,93.2c-3.4,6.8-10.2,11.3-17.7,11.8
	L309.3,501z"/>
<path class="st5" d="M373.1,330.4c-0.2,0-0.4,0-0.6,0c-7.8,0.3-14.8,4.8-18.3,11.8l-47.6,95.1l-22.3-33.4c-3.9-6-10.6-9.5-17.7-9.5
	h-53.3c-11.8,0-21.3,9.6-21.3,21.3s9.6,21.3,21.3,21.3h41.9l36.3,54.5c4,6,10.6,9.5,17.7,9.5l1.3,0c7.6-0.5,14.4-4.9,17.7-11.8
	L375,396v-65.5C374.4,330.4,373.7,330.4,373.1,330.4L373.1,330.4z"/>
</svg>
